<svg width="141" height="13" viewBox="0 0 141 13" fill="none" xmlns="http://www.w3.org/2000/svg">
<path d="M6.86137 9H8.30137L5.31337 0.648H3.72937L0.741374 9H2.16937L2.76937 7.296H6.26137L6.86137 9ZM5.87737 6.18H3.15337L4.52137 2.304L5.87737 6.18ZM16.5886 2.388H15.2206V6.072C15.2206 7.284 14.5606 7.908 13.5526 7.908C12.5566 7.908 11.8966 7.284 11.8966 6.072V2.388H10.5406V6.276C10.5406 8.124 11.7166 9.096 13.2646 9.096C14.0446 9.096 14.7886 8.772 15.2206 8.208V9H16.5886V2.388ZM18.9375 5.664C18.9375 7.704 20.3175 9.108 22.0575 9.108C23.1375 9.108 23.9295 8.568 24.3495 8.004V9.108C24.3495 10.428 23.5575 11.076 22.5015 11.076C21.5535 11.076 20.8215 10.608 20.6175 9.924H19.2615C19.4295 11.388 20.7375 12.264 22.5015 12.264C24.5655 12.264 25.7295 10.908 25.7295 9.108V2.388H24.3495V3.348C23.9415 2.784 23.1375 2.28 22.0575 2.28C20.3175 2.28 18.9375 3.624 18.9375 5.664ZM24.3495 5.688C24.3495 7.116 23.3775 7.92 22.3455 7.92C21.3255 7.92 20.3415 7.092 20.3415 5.664C20.3415 4.236 21.3255 3.468 22.3455 3.468C23.3775 3.468 24.3495 4.272 24.3495 5.688ZM32.3555 8.88H38.1875V7.74H34.3835C35.7875 6.456 37.9475 4.836 37.9475 2.712C37.9475 1.14 36.9395 0.0719998 35.1635 0.0719998C33.6155 0.0719998 32.3915 0.995999 32.3435 2.892H33.6635C33.6995 1.908 34.2155 1.236 35.1755 1.236C36.1955 1.236 36.5915 1.86 36.5915 2.772C36.5915 4.488 34.4195 6.072 32.3555 7.884V8.88ZM40.3893 4.512C40.3893 7.056 41.0613 8.976 43.5093 8.976C45.9573 8.976 46.6293 7.056 46.6293 4.512C46.6293 2.016 45.9573 0.0959995 43.5093 0.0959995C41.0613 0.0959995 40.3893 2.016 40.3893 4.512ZM45.2853 4.512C45.2853 6.228 45.1053 7.728 43.5093 7.728C41.9133 7.728 41.7333 6.228 41.7333 4.512C41.7333 2.88 41.9133 1.344 43.5093 1.344C45.1053 1.344 45.2853 2.88 45.2853 4.512ZM50.0128 9H51.3928V0.252H48.8968V1.5H50.0128V9ZM54.6321 0.228V5.28H55.9281C56.1561 4.632 56.6961 4.188 57.5001 4.188C58.6401 4.188 59.2041 4.836 59.2041 5.976C59.2041 7.056 58.6761 7.86 57.5001 7.86C56.5761 7.86 55.9521 7.38 55.7721 6.636H54.4401C54.6441 8.004 55.6881 9 57.4881 9C59.5161 9 60.5121 7.68 60.5121 5.94C60.5121 4.62 59.8521 3.024 57.7041 3.024C56.9241 3.024 56.2161 3.384 55.8921 3.816V1.428H59.9121V0.228H54.6321ZM67.3774 5.232H72.3094V4.08H67.3774V5.232ZM82.0941 0.659999H79.3701V9H82.0941C84.7701 9 86.5221 7.428 86.5221 4.86C86.5221 2.28 84.7701 0.659999 82.0941 0.659999ZM80.7381 7.884V1.776H82.0941C84.0621 1.776 85.1181 2.952 85.1181 4.86C85.1181 6.756 84.0621 7.884 82.0941 7.884H80.7381ZM91.6619 3.432C92.6819 3.432 93.4859 4.08 93.5099 5.1H89.8499C89.9939 4.056 90.7379 3.432 91.6619 3.432ZM94.7579 7.032H93.2819C93.0299 7.548 92.5619 7.956 91.7219 7.956C90.7139 7.956 89.9339 7.296 89.8379 6.204H94.8899C94.9259 5.976 94.9379 5.76 94.9379 5.532C94.9379 3.588 93.6059 2.28 91.7219 2.28C89.7659 2.28 88.4219 3.612 88.4219 5.688C88.4219 7.764 89.8259 9.108 91.7219 9.108C93.3419 9.108 94.3859 8.184 94.7579 7.032ZM96.8282 5.688C96.8282 7.764 98.1722 9.108 100.068 9.108C101.688 9.108 102.744 8.208 103.116 6.912H101.64C101.388 7.596 100.884 7.956 100.068 7.956C98.9642 7.956 98.2322 7.14 98.2322 5.688C98.2322 4.248 98.9642 3.432 100.068 3.432C100.884 3.432 101.412 3.84 101.64 4.476H103.116C102.744 3.084 101.688 2.28 100.068 2.28C98.1722 2.28 96.8282 3.624 96.8282 5.688ZM109.309 8.88H115.141V7.74H111.337C112.741 6.456 114.901 4.836 114.901 2.712C114.901 1.14 113.893 0.0719998 112.117 0.0719998C110.569 0.0719998 109.345 0.995999 109.297 2.892H110.617C110.653 1.908 111.169 1.236 112.129 1.236C113.149 1.236 113.545 1.86 113.545 2.772C113.545 4.488 111.373 6.072 109.309 7.884V8.88ZM117.342 4.512C117.342 7.056 118.014 8.976 120.462 8.976C122.91 8.976 123.582 7.056 123.582 4.512C123.582 2.016 122.91 0.0959995 120.462 0.0959995C118.014 0.0959995 117.342 2.016 117.342 4.512ZM122.238 4.512C122.238 6.228 122.058 7.728 120.462 7.728C118.866 7.728 118.686 6.228 118.686 4.512C118.686 2.88 118.866 1.344 120.462 1.344C122.058 1.344 122.238 2.88 122.238 4.512ZM125.922 8.88H131.754V7.74H127.95C129.354 6.456 131.514 4.836 131.514 2.712C131.514 1.14 130.506 0.0719998 128.73 0.0719998C127.182 0.0719998 125.958 0.995999 125.91 2.892H127.23C127.266 1.908 127.782 1.236 128.742 1.236C129.762 1.236 130.158 1.86 130.158 2.772C130.158 4.488 127.986 6.072 125.922 7.884V8.88ZM133.956 4.512C133.956 7.056 134.628 8.976 137.076 8.976C139.524 8.976 140.196 7.056 140.196 4.512C140.196 2.016 139.524 0.0959995 137.076 0.0959995C134.628 0.0959995 133.956 2.016 133.956 4.512ZM138.852 4.512C138.852 6.228 138.672 7.728 137.076 7.728C135.48 7.728 135.3 6.228 135.3 4.512C135.3 2.88 135.48 1.344 137.076 1.344C138.672 1.344 138.852 2.88 138.852 4.512Z" fill="#A7A7A7"/>
</svg>
