<svg width="134" height="13" viewBox="0 0 134 13" fill="none" xmlns="http://www.w3.org/2000/svg">
<path d="M5.86137 6.636C5.86137 3.588 1.44537 4.764 1.44537 2.88C1.44537 2.076 2.05737 1.692 2.84937 1.716C3.71337 1.74 4.20537 2.256 4.25337 2.82H5.76537C5.64537 1.392 4.51737 0.551999 2.92137 0.551999C1.21737 0.551999 0.0533741 1.464 0.0533741 2.928C0.0533741 6 4.48137 4.692 4.48137 6.708C4.48137 7.416 3.94137 7.932 2.98137 7.932C2.03337 7.932 1.55337 7.38 1.49337 6.696H0.029374C0.029374 8.172 1.31337 9.084 2.98137 9.084C4.84137 9.084 5.86137 7.884 5.86137 6.636ZM11.2596 3.432C12.2796 3.432 13.0836 4.08 13.1076 5.1H9.44756C9.59156 4.056 10.3356 3.432 11.2596 3.432ZM14.3556 7.032H12.8796C12.6276 7.548 12.1596 7.956 11.3196 7.956C10.3116 7.956 9.53156 7.296 9.43556 6.204H14.4876C14.5236 5.976 14.5356 5.76 14.5356 5.532C14.5356 3.588 13.2036 2.28 11.3196 2.28C9.36356 2.28 8.01956 3.612 8.01956 5.688C8.01956 7.764 9.42356 9.108 11.3196 9.108C12.9396 9.108 13.9836 8.184 14.3556 7.032ZM18.2498 3.36V2.388H16.8818V12.144H18.2498V8.04C18.6818 8.556 19.4618 9.108 20.5538 9.108C22.2938 9.108 23.6618 7.704 23.6618 5.664C23.6618 3.624 22.2938 2.28 20.5538 2.28C19.4738 2.28 18.6698 2.808 18.2498 3.36ZM22.2698 5.664C22.2698 7.092 21.2858 7.92 20.2538 7.92C19.2338 7.92 18.2498 7.116 18.2498 5.688C18.2498 4.272 19.2338 3.468 20.2538 3.468C21.2858 3.468 22.2698 4.236 22.2698 5.664ZM29.8438 8.88H35.6758V7.74H31.8718C33.2758 6.456 35.4358 4.836 35.4358 2.712C35.4358 1.14 34.4278 0.0719998 32.6518 0.0719998C31.1038 0.0719998 29.8798 0.995999 29.8318 2.892H31.1518C31.1878 1.908 31.7038 1.236 32.6638 1.236C33.6838 1.236 34.0798 1.86 34.0798 2.772C34.0798 4.488 31.9078 6.072 29.8438 7.884V8.88ZM37.8776 4.512C37.8776 7.056 38.5496 8.976 40.9976 8.976C43.4456 8.976 44.1176 7.056 44.1176 4.512C44.1176 2.016 43.4456 0.0959995 40.9976 0.0959995C38.5496 0.0959995 37.8776 2.016 37.8776 4.512ZM42.7736 4.512C42.7736 6.228 42.5936 7.728 40.9976 7.728C39.4016 7.728 39.2216 6.228 39.2216 4.512C39.2216 2.88 39.4016 1.344 40.9976 1.344C42.5936 1.344 42.7736 2.88 42.7736 4.512ZM46.4571 8.88H52.2891V7.74H48.4851C49.8891 6.456 52.0491 4.836 52.0491 2.712C52.0491 1.14 51.0411 0.0719998 49.2651 0.0719998C47.7171 0.0719998 46.4931 0.995999 46.4451 2.892H47.7651C47.8011 1.908 48.3171 1.236 49.2771 1.236C50.2971 1.236 50.6931 1.86 50.6931 2.772C50.6931 4.488 48.5211 6.072 46.4571 7.884V8.88ZM55.4269 9H56.8069V0.252H54.3109V1.5H55.4269V9ZM64.1274 5.232H69.0594V4.08H64.1274V5.232ZM78.8441 0.659999H76.1201V9H78.8441C81.5201 9 83.2721 7.428 83.2721 4.86C83.2721 2.28 81.5201 0.659999 78.8441 0.659999ZM77.4881 7.884V1.776H78.8441C80.8121 1.776 81.8681 2.952 81.8681 4.86C81.8681 6.756 80.8121 7.884 78.8441 7.884H77.4881ZM88.4119 3.432C89.4319 3.432 90.2359 4.08 90.2599 5.1H86.5999C86.7439 4.056 87.4879 3.432 88.4119 3.432ZM91.5079 7.032H90.0319C89.7799 7.548 89.3119 7.956 88.4719 7.956C87.4639 7.956 86.6839 7.296 86.5879 6.204H91.6399C91.6759 5.976 91.6879 5.76 91.6879 5.532C91.6879 3.588 90.3559 2.28 88.4719 2.28C86.5159 2.28 85.1719 3.612 85.1719 5.688C85.1719 7.764 86.5759 9.108 88.4719 9.108C90.0919 9.108 91.1359 8.184 91.5079 7.032ZM93.5782 5.688C93.5782 7.764 94.9222 9.108 96.8182 9.108C98.4382 9.108 99.4942 8.208 99.8662 6.912H98.3902C98.1382 7.596 97.6342 7.956 96.8182 7.956C95.7142 7.956 94.9822 7.14 94.9822 5.688C94.9822 4.248 95.7142 3.432 96.8182 3.432C97.6342 3.432 98.1622 3.84 98.3902 4.476H99.8662C99.4942 3.084 98.4382 2.28 96.8182 2.28C94.9222 2.28 93.5782 3.624 93.5782 5.688ZM106.059 8.88H111.891V7.74H108.087C109.491 6.456 111.651 4.836 111.651 2.712C111.651 1.14 110.643 0.0719998 108.867 0.0719998C107.319 0.0719998 106.095 0.995999 106.047 2.892H107.367C107.403 1.908 107.919 1.236 108.879 1.236C109.899 1.236 110.295 1.86 110.295 2.772C110.295 4.488 108.123 6.072 106.059 7.884V8.88ZM114.092 4.512C114.092 7.056 114.764 8.976 117.212 8.976C119.66 8.976 120.332 7.056 120.332 4.512C120.332 2.016 119.66 0.0959995 117.212 0.0959995C114.764 0.0959995 114.092 2.016 114.092 4.512ZM118.988 4.512C118.988 6.228 118.808 7.728 117.212 7.728C115.616 7.728 115.436 6.228 115.436 4.512C115.436 2.88 115.616 1.344 117.212 1.344C118.808 1.344 118.988 2.88 118.988 4.512ZM122.672 8.88H128.504V7.74H124.7C126.104 6.456 128.264 4.836 128.264 2.712C128.264 1.14 127.256 0.0719998 125.48 0.0719998C123.932 0.0719998 122.708 0.995999 122.66 2.892H123.98C124.016 1.908 124.532 1.236 125.492 1.236C126.512 1.236 126.908 1.86 126.908 2.772C126.908 4.488 124.736 6.072 122.672 7.884V8.88ZM131.642 9H133.022V0.252H130.526V1.5H131.642V9Z" fill="#A7A7A7"/>
</svg>
